#Comment line ignore any data following # character 
#Hierarchical Translation and Rotation (.htr) file 
[Header]	
#Header keywords are followed by a single value 
FileType HTR		#Single word string
DataType HTRS		#Translation followed by rotation and scale data
FileVersion 1		#integer
NumSegments 23		#integer
NumFrames 4		#integer
DataFrameRate 30		#integer, data frame rate in this file
EulerRotationOrder ZYX
CalibrationUnits mm
RotationUnits Degrees
GlobalAxisofGravity Y
BoneLengthAxis Y
ScaleFactor 1.00
[SegmentNames&Hierarchy]
#CHILD	PARENT
MASTER GLOBAL
weapon MASTER
arm_lock_bottom_part1 weapon
arm_lock_bottom_part2 weapon
arm_lock_bottom_part3 weapon
arm_lock_bottom_part4 weapon
arm_lock_top_part1 weapon
arm_lock_top_part2 weapon
arm_lock_top_part3 weapon
front_lower_left_part1 weapon
front_lower_right_part1 weapon
front_top_left_part weapon
front_top_right_part1 weapon
scope_part1 weapon
scope_part2 weapon
front_lower_left_part2 front_lower_left_part1
front_lower_left_part3 front_lower_left_part2
front_lower_right_part2 front_lower_right_part1
front_lower_right_part3 front_lower_right_part2
front_top_left_part2 front_top_left_part
front_top_left_part3 front_top_left_part2
front_top_right_part2 front_top_right_part1
front_top_right_part3 front_top_right_part2
[BasePosition]
#SegmentName Tx, Ty, Tz, Rx, Ry, Rz, BoneLength
MASTER 0.000000 0.000000 0.000000 -90.000000 0.000000 0.000000 10.000000 
weapon 0.000000 0.000000 0.000000 0.000000 0.000000 0.000000 10.000000 
arm_lock_bottom_part1 0.000000 0.000000 0.000000 0.000000 0.000000 0.000000 10.000000 
arm_lock_bottom_part2 0.000000 0.000000 0.000000 0.000000 0.000000 0.000000 10.000000 
arm_lock_bottom_part3 0.000000 0.000000 0.000000 0.000000 0.000000 0.000000 10.000000 
arm_lock_bottom_part4 0.000000 0.000000 0.000000 0.000000 0.000000 0.000000 10.000000 
arm_lock_top_part1 0.000000 0.000000 0.000000 0.000000 0.000000 0.000000 10.000000 
arm_lock_top_part2 0.000000 0.000000 0.000000 0.000000 0.000000 0.000000 10.000000 
arm_lock_top_part3 0.000000 0.000000 0.000000 0.000000 0.000000 0.000000 10.000000 
front_lower_left_part1 0.000000 0.000000 0.000000 0.000000 0.000000 0.000000 10.000000 
front_lower_right_part1 0.000000 0.000000 0.000000 0.000000 0.000000 0.000000 10.000000 
front_top_left_part 0.000000 0.000000 0.000000 0.000000 0.000000 0.000000 10.000000 
front_top_right_part1 0.000000 0.000000 0.000000 0.000000 0.000000 0.000000 10.000000 
scope_part1 0.000000 0.000000 0.000000 0.000000 0.000000 0.000000 10.000000 
scope_part2 0.000000 0.000000 0.000000 0.000000 0.000000 0.000000 10.000000 
front_lower_left_part2 0.000000 0.000000 0.000000 0.000000 0.000000 0.000000 10.000000 
front_lower_left_part3 0.000000 0.000000 0.000000 0.000000 0.000000 0.000000 10.000000 
front_lower_right_part2 0.000000 0.000000 0.000000 0.000000 0.000000 0.000000 10.000000 
front_lower_right_part3 0.000000 0.000000 0.000000 0.000000 0.000000 0.000000 10.000000 
front_top_left_part2 0.000000 0.000000 0.000000 0.000000 0.000000 0.000000 10.000000 
front_top_left_part3 0.000000 0.000000 0.000000 0.000000 0.000000 0.000000 10.000000 
front_top_right_part2 0.000000 0.000000 0.000000 0.000000 0.000000 0.000000 10.000000 
front_top_right_part3 0.000000 0.000000 0.000000 0.000000 0.000000 0.000000 10.000000 
#Beginning of Data. Separated by tabs
#Fr	Tx	Ty	Tz	Rx	Ry	Rz	SF
[MASTER]
22 0.000000 -0.000019 0.000002 0.002458 -0.000000 0.000000 0.000019
23 0.000000 -0.000019 0.000002 0.002458 -0.000000 0.000000 0.000019
24 0.000000 -0.000019 0.000002 0.002458 -0.000000 0.000000 0.000019
25 0.000000 -0.000019 0.000002 0.002458 -0.000000 0.000000 0.000019
[weapon]
22 10.182457 -168.977844 -13.084106 -0.002473 -0.000000 -0.000020 169.789246
23 10.182457 -168.977844 -13.084106 -0.002473 -0.000000 -0.000020 169.789246
24 10.182476 -168.977844 -13.084106 -0.002473 -0.000000 -0.000020 169.789246
25 10.182457 -168.977844 -13.084106 -0.002473 -0.000000 -0.000020 169.789246
[arm_lock_bottom_part1]
22 -48.820000 98.566208 -83.498993 179.999985 0.000004 9.388626 138.096970
23 -48.820000 98.566208 -83.498993 179.999985 0.000004 9.388626 138.096970
24 -48.820000 98.566170 -83.498993 179.999985 0.000004 9.388626 138.096939
25 -48.820019 98.566170 -83.498993 179.999985 0.000004 9.388626 138.096939
[arm_lock_bottom_part2]
22 -49.022766 58.782005 -78.526535 -179.999985 -0.000001 6.576765 109.658440
23 -49.022766 58.782005 -78.526535 -179.999985 -0.000001 6.576765 109.658440
24 -49.022766 58.781967 -78.526535 -179.999985 -0.000001 6.576765 109.658417
25 -49.022766 58.781967 -78.526535 -179.999985 -0.000001 6.576765 109.658417
[arm_lock_bottom_part3]
22 -51.266422 -16.798210 -66.920395 -179.999985 -0.000001 4.326176 85.957924
23 -51.266422 -16.798210 -66.920395 -179.999985 -0.000001 4.326176 85.957924
24 -51.266422 -16.798248 -66.920395 -179.999985 -0.000001 4.326176 85.957932
25 -51.266438 -16.798248 -66.920395 -179.999985 -0.000001 4.326176 85.957939
[arm_lock_bottom_part4]
22 -40.078102 -93.503113 -59.330063 -179.999985 -0.000000 1.322129 117.767326
23 -40.078102 -93.503113 -59.330063 -179.999985 -0.000000 1.322129 117.767326
24 -40.078083 -93.503136 -59.330063 -179.999985 -0.000000 1.322129 117.767326
25 -40.078102 -93.503136 -59.330063 -179.999985 -0.000000 1.322129 117.767334
[arm_lock_top_part1]
22 -47.532558 61.554489 78.379364 0.000000 -0.000000 -9.999999 110.415680
23 -47.532558 61.554489 78.379364 0.000000 -0.000000 -9.999999 110.415680
24 -47.532558 61.554451 78.379364 0.000000 -0.000000 -9.999999 110.415672
25 -47.532539 61.554451 78.379364 0.000000 -0.000000 -9.999999 110.415665
[arm_lock_top_part2]
22 -45.622673 13.709908 63.393555 0.000000 -0.000000 -7.722126 79.297745
23 -45.622673 13.709908 63.393555 0.000000 -0.000000 -7.722126 79.297745
24 -45.622673 13.709869 63.393555 0.000000 -0.000000 -7.722126 79.297745
25 -45.622692 13.709869 63.393555 0.000000 -0.000000 -7.722126 79.297752
[arm_lock_top_part3]
22 -43.788544 -73.747208 72.061615 0.000000 0.000000 -4.533067 112.022163
23 -43.788544 -73.747208 72.061615 0.000000 0.000000 -4.533067 112.022163
24 -43.788525 -73.747253 72.061615 0.000000 0.000000 -4.533067 112.022179
25 -43.788567 -73.747253 72.061615 0.000000 0.000000 -4.533067 112.022194
[front_lower_left_part1]
22 -46.798534 475.071045 -43.538895 -17.980034 0.000051 32.194073 479.351898
23 -46.798534 475.071045 -43.538895 -17.980036 0.000052 32.194084 479.351898
24 -46.798534 475.071014 -43.538895 -17.980036 0.000052 32.194084 479.351868
25 -46.798515 475.070953 -43.538895 -17.980034 0.000051 32.194077 479.351807
[front_lower_right_part1]
22 26.433468 475.070984 -43.538742 -17.167982 -0.000012 -27.317896 477.793671
23 26.433468 475.070984 -43.538742 -17.167982 -0.000012 -27.317894 477.793671
24 26.433447 475.070953 -43.538895 -17.167982 -0.000012 -27.317892 477.793640
25 26.433447 475.070953 -43.538895 -17.167982 -0.000012 -27.317894 477.793640
[front_top_left_part]
22 -47.897224 494.788910 7.030945 -0.000000 0.000003 -0.000001 497.151520
23 -47.897224 494.788910 7.030945 -0.000000 0.000003 -0.000001 497.151520
24 -47.897224 494.788879 7.030945 -0.000000 0.000003 -0.000001 497.151489
25 -47.897205 494.788879 7.030945 -0.000000 0.000003 -0.000001 497.151489
[front_top_right_part1]
22 27.532139 494.788910 7.031097 0.000000 -0.000000 -0.000000 495.604218
23 27.532139 494.788910 7.031097 0.000000 -0.000000 -0.000000 495.604218
24 27.532156 494.788879 7.031097 0.000000 -0.000000 -0.000000 495.604187
25 27.532120 494.788879 7.031097 0.000000 -0.000000 -0.000000 495.604187
[scope_part1]
22 -10.754299 87.338936 156.453094 -5.061971 -14.310677 1.254361 179.502960
23 -10.754299 87.338936 156.453094 -5.059724 -14.212152 1.245302 179.502960
24 -10.754318 87.338905 156.453094 -5.057492 -14.113622 1.236250 179.502960
25 -10.754318 87.338905 156.453094 -5.055347 -14.015806 1.227327 179.502960
[scope_part2]
22 -10.754299 82.597351 156.859894 -5.624394 29.269335 -2.756634 177.603500
23 -10.754299 82.597351 156.859894 -5.618113 29.155497 -2.743735 177.603500
24 -10.754318 82.597305 156.859894 -5.611866 29.041655 -2.730864 177.603470
25 -10.754318 82.597351 156.859894 -5.605791 28.929253 -2.718300 177.603500
[front_lower_left_part2]
22 -55.193634 141.618408 32.268219 0.000000 -0.000000 14.029486 155.381317
23 -55.193634 141.618408 32.268219 0.000000 -0.000000 13.934968 155.381317
24 -55.193558 141.618347 32.268372 0.000000 -0.000000 13.841239 155.381241
25 -55.193596 141.618317 32.268372 0.000000 -0.000000 13.748456 155.381241
[front_lower_left_part3]
22 -10.943755 108.509445 -11.124877 35.752205 -8.390141 -24.761879 109.625854
23 -10.943679 108.509445 -11.124877 35.760220 -8.350722 -24.817255 109.625847
24 -10.943831 108.509407 -11.124877 35.768410 -8.310669 -24.873434 109.625824
25 -10.943755 108.509521 -11.125030 35.776577 -8.270316 -24.930014 109.625946
[front_lower_right_part2]
22 55.193668 141.618195 32.268372 0.000000 0.000000 -18.006281 155.381149
23 55.193665 141.618195 32.268372 0.000000 0.000000 -17.936028 155.381149
24 55.193665 141.618195 32.268372 0.000000 0.000000 -17.866718 155.381149
25 55.193668 141.618271 32.268372 0.000000 0.000000 -17.798670 155.381226
[front_lower_right_part3]
22 10.943755 108.509590 -11.124725 35.298435 10.352897 21.976309 109.625992
23 10.943890 108.509521 -11.124877 35.306133 10.323111 22.019001 109.625938
24 10.943985 108.509445 -11.124877 35.313908 10.292806 22.062523 109.625877
25 10.943755 108.509521 -11.124725 35.321655 10.262491 22.106031 109.625916
[front_top_left_part2]
22 -85.459404 137.396011 57.196808 9.848895 0.581571 18.939222 171.617157
23 -85.269127 137.396469 57.186279 9.848110 0.596054 18.855715 171.519348
24 -85.082848 137.396774 57.176052 9.847298 0.610232 18.774067 171.423645
25 -84.901649 137.397232 57.166290 9.846532 0.624047 18.694607 171.330887
[front_top_left_part3]
22 -28.216438 149.656830 49.959717 -26.055492 -1.902053 -62.420395 160.278839
23 -28.216400 149.656906 49.959641 -26.053801 -1.927192 -62.471813 160.278885
24 -28.216400 149.656906 49.959641 -26.052078 -1.952331 -62.523205 160.278885
25 -28.216438 149.656830 49.959717 -26.050262 -1.977616 -62.575066 160.278839
[front_top_right_part2]
22 79.785004 137.567749 52.793732 8.077658 1.033348 -22.034550 167.564056
23 79.622574 137.567368 52.802734 8.079274 1.020767 -21.945763 167.489304
24 79.462883 137.567062 52.811428 8.080927 1.008392 -21.858551 167.415924
25 79.306908 137.566666 52.819973 8.082445 0.996282 -21.773224 167.344330
[front_top_right_part3]
22 28.216442 149.656906 49.959717 -25.929083 3.267700 65.223579 160.278915
23 28.216478 149.656982 49.959641 -25.926702 3.288039 65.265320 160.278961
24 28.216528 149.656982 49.959641 -25.924301 3.308455 65.307419 160.278976
25 28.216536 149.656982 49.959641 -25.921801 3.329082 65.349861 160.278976
